<svg width="1000" height="250" viewBox="0 0 1000 250" fill="none" xmlns="http://www.w3.org/2000/svg">
<g filter="url(#filter0_d)">
<rect x="30" y="20" width="940" height="210" rx="19" fill="white"/>
</g>
<path d="M321.352 155.43C320.446 155.43 319.737 155.203 319.227 154.75C318.717 154.297 318.349 153.73 318.122 153.05L299.932 98.48C299.819 98.1966 299.762 97.9416 299.762 97.715C299.762 97.205 299.932 96.78 300.272 96.44C300.612 96.1 301.037 95.93 301.547 95.93H309.027C309.821 95.93 310.416 96.1566 310.812 96.61C311.266 97.0066 311.549 97.4033 311.662 97.8L326.027 141.575L340.392 97.8C340.506 97.4033 340.761 97.0066 341.157 96.61C341.611 96.1566 342.234 95.93 343.027 95.93H350.507C350.961 95.93 351.357 96.1 351.697 96.44C352.094 96.78 352.292 97.205 352.292 97.715C352.292 97.9416 352.236 98.1966 352.122 98.48L333.932 153.05C333.706 153.73 333.337 154.297 332.827 154.75C332.317 155.203 331.609 155.43 330.702 155.43H321.352Z" fill="url(#paint0_linear)"/>
<path d="M363.328 155.43C362.761 155.43 362.279 155.232 361.883 154.835C361.486 154.438 361.288 153.957 361.288 153.39V98.055C361.288 97.4316 361.486 96.9216 361.883 96.525C362.279 96.1283 362.761 95.93 363.328 95.93H370.808C371.431 95.93 371.941 96.1283 372.338 96.525C372.734 96.9216 372.933 97.4316 372.933 98.055V117.945L392.143 97.46C392.369 97.1766 392.738 96.865 393.248 96.525C393.814 96.1283 394.551 95.93 395.458 95.93H403.873C404.326 95.93 404.723 96.1 405.063 96.44C405.459 96.78 405.658 97.205 405.658 97.715C405.658 98.1116 405.544 98.4516 405.318 98.735L381.943 124.405L406.933 152.54C407.216 152.88 407.358 153.248 407.358 153.645C407.358 154.155 407.159 154.58 406.763 154.92C406.423 155.26 406.026 155.43 405.573 155.43H396.818C395.854 155.43 395.089 155.232 394.523 154.835C394.013 154.382 393.673 154.07 393.503 153.9L372.933 131.375V153.39C372.933 153.957 372.734 154.438 372.338 154.835C371.941 155.232 371.431 155.43 370.808 155.43H363.328Z" fill="url(#paint1_linear)"/>
<path d="M435.961 155.43C435.338 155.43 434.828 155.232 434.431 154.835C434.035 154.438 433.836 153.957 433.836 153.39V98.055C433.836 97.4316 434.035 96.9216 434.431 96.525C434.828 96.1283 435.338 95.93 435.961 95.93H442.676C443.47 95.93 444.065 96.1566 444.461 96.61C444.858 97.0066 445.113 97.3183 445.226 97.545L461.631 128.145L478.206 97.545C478.32 97.3183 478.575 97.0066 478.971 96.61C479.368 96.1566 479.963 95.93 480.756 95.93H487.386C488.01 95.93 488.52 96.1283 488.916 96.525C489.313 96.9216 489.511 97.4316 489.511 98.055V153.39C489.511 153.957 489.313 154.438 488.916 154.835C488.52 155.232 488.01 155.43 487.386 155.43H480.246C479.623 155.43 479.113 155.232 478.716 154.835C478.376 154.438 478.206 153.957 478.206 153.39V116.585L466.306 139.28C466.023 139.79 465.655 140.243 465.201 140.64C464.748 140.98 464.153 141.15 463.416 141.15H459.931C459.138 141.15 458.515 140.98 458.061 140.64C457.665 140.243 457.325 139.79 457.041 139.28L445.141 116.585V153.39C445.141 153.957 444.943 154.438 444.546 154.835C444.15 155.232 443.668 155.43 443.101 155.43H435.961Z" fill="url(#paint2_linear)"/>
<path d="M518.118 156.28C514.661 156.28 511.658 155.515 509.108 153.985C506.615 152.398 504.688 150.188 503.328 147.355C501.968 144.465 501.288 141.065 501.288 137.155V113.27C501.288 112.703 501.486 112.222 501.883 111.825C502.28 111.428 502.761 111.23 503.328 111.23H510.808C511.431 111.23 511.913 111.428 512.253 111.825C512.65 112.222 512.848 112.703 512.848 113.27V136.645C512.848 143.672 515.936 147.185 522.113 147.185C525.06 147.185 527.383 146.25 529.083 144.38C530.84 142.51 531.718 139.932 531.718 136.645V113.27C531.718 112.703 531.916 112.222 532.313 111.825C532.71 111.428 533.191 111.23 533.758 111.23H541.238C541.805 111.23 542.286 111.428 542.683 111.825C543.08 112.222 543.278 112.703 543.278 113.27V153.39C543.278 153.957 543.08 154.438 542.683 154.835C542.286 155.232 541.805 155.43 541.238 155.43H534.353C533.73 155.43 533.22 155.232 532.823 154.835C532.483 154.438 532.313 153.957 532.313 153.39V149.905C530.783 151.888 528.885 153.447 526.618 154.58C524.351 155.713 521.518 156.28 518.118 156.28Z" fill="url(#paint3_linear)"/>
<path d="M571.251 156.28C567.851 156.28 564.933 155.883 562.496 155.09C560.116 154.297 558.161 153.305 556.631 152.115C555.101 150.925 553.968 149.735 553.231 148.545C552.494 147.355 552.098 146.363 552.041 145.57C551.984 144.947 552.154 144.465 552.551 144.125C553.004 143.728 553.486 143.53 553.996 143.53H560.711C560.938 143.53 561.136 143.558 561.306 143.615C561.476 143.672 561.703 143.842 561.986 144.125C562.723 144.748 563.488 145.4 564.281 146.08C565.131 146.76 566.123 147.355 567.256 147.865C568.389 148.318 569.806 148.545 571.506 148.545C573.716 148.545 575.558 148.12 577.031 147.27C578.561 146.363 579.326 145.088 579.326 143.445C579.326 142.255 578.986 141.292 578.306 140.555C577.683 139.818 576.493 139.167 574.736 138.6C572.979 137.977 570.486 137.325 567.256 136.645C564.083 135.908 561.448 134.973 559.351 133.84C557.254 132.707 555.696 131.29 554.676 129.59C553.656 127.89 553.146 125.907 553.146 123.64C553.146 121.43 553.798 119.333 555.101 117.35C556.461 115.31 558.444 113.638 561.051 112.335C563.714 111.032 567.001 110.38 570.911 110.38C573.971 110.38 576.634 110.777 578.901 111.57C581.168 112.307 583.038 113.242 584.511 114.375C586.041 115.508 587.203 116.67 587.996 117.86C588.789 118.993 589.214 119.985 589.271 120.835C589.328 121.458 589.158 121.968 588.761 122.365C588.364 122.705 587.911 122.875 587.401 122.875H581.111C580.828 122.875 580.573 122.818 580.346 122.705C580.119 122.592 579.893 122.45 579.666 122.28C579.043 121.713 578.363 121.118 577.626 120.495C576.889 119.815 575.983 119.248 574.906 118.795C573.886 118.342 572.526 118.115 570.826 118.115C568.673 118.115 567.029 118.597 565.896 119.56C564.763 120.467 564.196 121.628 564.196 123.045C564.196 124.008 564.451 124.858 564.961 125.595C565.528 126.275 566.633 126.927 568.276 127.55C569.919 128.173 572.413 128.825 575.756 129.505C579.553 130.185 582.556 131.205 584.766 132.565C587.033 133.868 588.619 135.398 589.526 137.155C590.489 138.855 590.971 140.753 590.971 142.85C590.971 145.4 590.206 147.695 588.676 149.735C587.203 151.775 584.993 153.39 582.046 154.58C579.156 155.713 575.558 156.28 571.251 156.28Z" fill="url(#paint4_linear)"/>
<path d="M601.785 155.43C601.218 155.43 600.737 155.232 600.34 154.835C599.943 154.438 599.745 153.957 599.745 153.39V113.27C599.745 112.703 599.943 112.222 600.34 111.825C600.737 111.428 601.218 111.23 601.785 111.23H608.84C609.463 111.23 609.945 111.428 610.285 111.825C610.682 112.222 610.88 112.703 610.88 113.27V153.39C610.88 153.957 610.682 154.438 610.285 154.835C609.945 155.232 609.463 155.43 608.84 155.43H601.785ZM601.445 103.92C600.878 103.92 600.397 103.722 600 103.325C599.603 102.928 599.405 102.447 599.405 101.88V95.76C599.405 95.1933 599.603 94.7116 600 94.315C600.397 93.9183 600.878 93.72 601.445 93.72H609.18C609.803 93.72 610.313 93.9183 610.71 94.315C611.107 94.7116 611.305 95.1933 611.305 95.76V101.88C611.305 102.447 611.107 102.928 610.71 103.325C610.313 103.722 609.803 103.92 609.18 103.92H601.445Z" fill="url(#paint5_linear)"/>
<path d="M641.282 156.28C637.202 156.28 633.604 155.515 630.487 153.985C627.427 152.455 625.019 150.245 623.262 147.355C621.562 144.408 620.627 140.867 620.457 136.73C620.401 135.88 620.372 134.775 620.372 133.415C620.372 131.998 620.401 130.837 620.457 129.93C620.627 125.793 621.562 122.28 623.262 119.39C625.019 116.443 627.427 114.205 630.487 112.675C633.604 111.145 637.202 110.38 641.282 110.38C644.909 110.38 647.997 110.89 650.547 111.91C653.097 112.873 655.194 114.148 656.837 115.735C658.481 117.265 659.699 118.88 660.492 120.58C661.342 122.223 661.796 123.725 661.852 125.085C661.909 125.708 661.711 126.218 661.257 126.615C660.861 126.955 660.379 127.125 659.812 127.125H652.332C651.766 127.125 651.312 126.983 650.972 126.7C650.689 126.417 650.406 125.992 650.122 125.425C649.272 123.158 648.139 121.572 646.722 120.665C645.362 119.702 643.606 119.22 641.452 119.22C638.619 119.22 636.352 120.127 634.652 121.94C633.009 123.697 632.131 126.502 632.017 130.355C631.904 132.508 631.904 134.492 632.017 136.305C632.131 140.215 633.009 143.048 634.652 144.805C636.352 146.562 638.619 147.44 641.452 147.44C643.662 147.44 645.447 146.987 646.807 146.08C648.167 145.117 649.272 143.502 650.122 141.235C650.406 140.668 650.689 140.243 650.972 139.96C651.312 139.677 651.766 139.535 652.332 139.535H659.812C660.379 139.535 660.861 139.733 661.257 140.13C661.711 140.47 661.909 140.952 661.852 141.575C661.796 142.595 661.512 143.757 661.002 145.06C660.549 146.307 659.784 147.61 658.707 148.97C657.687 150.273 656.384 151.492 654.797 152.625C653.211 153.702 651.284 154.58 649.017 155.26C646.807 155.94 644.229 156.28 641.282 156.28Z" fill="url(#paint6_linear)"/>
<path d="M693.201 155.43C692.634 155.43 692.152 155.232 691.756 154.835C691.359 154.438 691.161 153.957 691.161 153.39V98.055C691.161 97.4316 691.359 96.9216 691.756 96.525C692.152 96.1283 692.634 95.93 693.201 95.93H717.851C722.441 95.93 726.181 96.6383 729.071 98.055C731.961 99.415 734.086 101.313 735.446 103.75C736.862 106.187 737.571 109.02 737.571 112.25C737.571 114.403 737.174 116.302 736.381 117.945C735.644 119.532 734.709 120.835 733.576 121.855C732.499 122.875 731.422 123.668 730.346 124.235C732.556 125.255 734.511 126.955 736.211 129.335C737.911 131.715 738.761 134.548 738.761 137.835C738.761 141.235 737.996 144.267 736.466 146.93C734.936 149.593 732.669 151.69 729.666 153.22C726.662 154.693 722.951 155.43 718.531 155.43H693.201ZM702.976 146.42H717.171C720.231 146.42 722.554 145.598 724.141 143.955C725.727 142.255 726.521 140.215 726.521 137.835C726.521 135.342 725.699 133.273 724.056 131.63C722.469 129.987 720.174 129.165 717.171 129.165H702.976V146.42ZM702.976 120.325H716.321C719.324 120.325 721.562 119.617 723.036 118.2C724.566 116.727 725.331 114.828 725.331 112.505C725.331 110.125 724.566 108.255 723.036 106.895C721.562 105.535 719.324 104.855 716.321 104.855H702.976V120.325Z" fill="url(#paint7_linear)"/>
<path d="M767.962 156.28C763.429 156.28 759.604 155.487 756.487 153.9C753.427 152.313 751.075 150.075 749.432 147.185C747.845 144.295 746.939 140.923 746.712 137.07C746.655 136.05 746.627 134.803 746.627 133.33C746.627 131.857 746.655 130.61 746.712 129.59C746.939 125.68 747.874 122.308 749.517 119.475C751.217 116.585 753.597 114.347 756.657 112.76C759.774 111.173 763.542 110.38 767.962 110.38C772.382 110.38 776.122 111.173 779.182 112.76C782.299 114.347 784.679 116.585 786.322 119.475C788.022 122.308 788.985 125.68 789.212 129.59C789.269 130.61 789.297 131.857 789.297 133.33C789.297 134.803 789.269 136.05 789.212 137.07C788.985 140.923 788.05 144.295 786.407 147.185C784.82 150.075 782.469 152.313 779.352 153.9C776.292 155.487 772.495 156.28 767.962 156.28ZM767.962 147.865C770.965 147.865 773.289 146.93 774.932 145.06C776.575 143.133 777.482 140.328 777.652 136.645C777.709 135.795 777.737 134.69 777.737 133.33C777.737 131.97 777.709 130.865 777.652 130.015C777.482 126.332 776.575 123.555 774.932 121.685C773.289 119.758 770.965 118.795 767.962 118.795C764.959 118.795 762.635 119.758 760.992 121.685C759.349 123.555 758.442 126.332 758.272 130.015C758.215 130.865 758.187 131.97 758.187 133.33C758.187 134.69 758.215 135.795 758.272 136.645C758.442 140.328 759.349 143.133 760.992 145.06C762.635 146.93 764.959 147.865 767.962 147.865Z" fill="url(#paint8_linear)"/>
<path d="M818.358 155.43C814.958 155.43 812.096 154.835 809.773 153.645C807.449 152.455 805.721 150.698 804.588 148.375C803.454 145.995 802.888 143.048 802.888 139.535V120.24H796.173C795.606 120.24 795.125 120.042 794.728 119.645C794.331 119.248 794.133 118.738 794.133 118.115V113.27C794.133 112.703 794.331 112.222 794.728 111.825C795.125 111.428 795.606 111.23 796.173 111.23H802.888V97.12C802.888 96.5533 803.058 96.0716 803.398 95.675C803.794 95.2783 804.305 95.08 804.928 95.08H811.813C812.379 95.08 812.861 95.2783 813.258 95.675C813.654 96.0716 813.853 96.5533 813.853 97.12V111.23H824.478C825.044 111.23 825.526 111.428 825.923 111.825C826.32 112.222 826.518 112.703 826.518 113.27V118.115C826.518 118.738 826.32 119.248 825.923 119.645C825.526 120.042 825.044 120.24 824.478 120.24H813.853V138.685C813.853 141.008 814.25 142.822 815.043 144.125C815.893 145.428 817.338 146.08 819.378 146.08H825.243C825.81 146.08 826.291 146.278 826.688 146.675C827.084 147.072 827.283 147.553 827.283 148.12V153.39C827.283 153.957 827.084 154.438 826.688 154.835C826.291 155.232 825.81 155.43 825.243 155.43H818.358Z" fill="url(#paint9_linear)"/>
<path fill-rule="evenodd" clip-rule="evenodd" d="M254.954 84.1334C255.893 84.9287 256.434 86.0968 256.434 87.3272V141.743C256.434 144.055 254.56 145.929 252.249 145.929C249.937 145.929 248.063 144.055 248.063 141.743V92.2685L206.204 99.2449V150.115C206.204 152.427 204.33 154.301 202.018 154.301C199.707 154.301 197.832 152.427 197.832 150.115V95.699C197.832 93.6528 199.312 91.9065 201.33 91.5701L251.56 83.1983C252.774 82.9961 254.015 83.338 254.954 84.1334Z" fill="url(#paint10_linear)"/>
<path fill-rule="evenodd" clip-rule="evenodd" d="M189.461 141.743C184.837 141.743 181.089 145.492 181.089 150.115C181.089 154.739 184.837 158.487 189.461 158.487C194.084 158.487 197.832 154.739 197.832 150.115C197.832 145.492 194.084 141.743 189.461 141.743ZM172.717 150.115C172.717 140.868 180.214 133.372 189.461 133.372C198.708 133.372 206.204 140.868 206.204 150.115C206.204 159.362 198.708 166.859 189.461 166.859C180.214 166.859 172.717 159.362 172.717 150.115Z" fill="url(#paint11_linear)"/>
<path fill-rule="evenodd" clip-rule="evenodd" d="M239.691 133.372C235.067 133.372 231.319 137.12 231.319 141.743C231.319 146.367 235.067 150.115 239.691 150.115C244.315 150.115 248.063 146.367 248.063 141.743C248.063 137.12 244.315 133.372 239.691 133.372ZM222.948 141.743C222.948 132.496 230.444 125 239.691 125C248.938 125 256.434 132.496 256.434 141.743C256.434 150.991 248.938 158.487 239.691 158.487C230.444 158.487 222.948 150.991 222.948 141.743Z" fill="url(#paint12_linear)"/>
<defs>
<filter id="filter0_d" x="22" y="15" width="956" height="226" filterUnits="userSpaceOnUse" color-interpolation-filters="sRGB">
<feFlood flood-opacity="0" result="BackgroundImageFix"/>
<feColorMatrix in="SourceAlpha" type="matrix" values="0 0 0 0 0 0 0 0 0 0 0 0 0 0 0 0 0 0 127 0"/>
<feOffset dy="3"/>
<feGaussianBlur stdDeviation="4"/>
<feColorMatrix type="matrix" values="0 0 0 0 0 0 0 0 0 0 0 0 0 0 0 0 0 0 0.16 0"/>
<feBlend mode="normal" in2="BackgroundImageFix" result="effect1_dropShadow"/>
<feBlend mode="normal" in="SourceGraphic" in2="effect1_dropShadow" result="shape"/>
</filter>
<linearGradient id="paint0_linear" x1="777.275" y1="75.4302" x2="358.632" y2="155.43" gradientUnits="userSpaceOnUse">
<stop stop-color="#396DC1"/>
<stop offset="1" stop-color="#6EA5F7"/>
</linearGradient>
<linearGradient id="paint1_linear" x1="777.275" y1="75.4302" x2="358.632" y2="155.43" gradientUnits="userSpaceOnUse">
<stop stop-color="#396DC1"/>
<stop offset="1" stop-color="#6EA5F7"/>
</linearGradient>
<linearGradient id="paint2_linear" x1="777.275" y1="75.4302" x2="358.632" y2="155.43" gradientUnits="userSpaceOnUse">
<stop stop-color="#396DC1"/>
<stop offset="1" stop-color="#6EA5F7"/>
</linearGradient>
<linearGradient id="paint3_linear" x1="777.275" y1="75.4302" x2="358.632" y2="155.43" gradientUnits="userSpaceOnUse">
<stop stop-color="#396DC1"/>
<stop offset="1" stop-color="#6EA5F7"/>
</linearGradient>
<linearGradient id="paint4_linear" x1="777.275" y1="75.4302" x2="358.632" y2="155.43" gradientUnits="userSpaceOnUse">
<stop stop-color="#396DC1"/>
<stop offset="1" stop-color="#6EA5F7"/>
</linearGradient>
<linearGradient id="paint5_linear" x1="777.275" y1="75.4302" x2="358.632" y2="155.43" gradientUnits="userSpaceOnUse">
<stop stop-color="#396DC1"/>
<stop offset="1" stop-color="#6EA5F7"/>
</linearGradient>
<linearGradient id="paint6_linear" x1="777.275" y1="75.4302" x2="358.632" y2="155.43" gradientUnits="userSpaceOnUse">
<stop stop-color="#396DC1"/>
<stop offset="1" stop-color="#6EA5F7"/>
</linearGradient>
<linearGradient id="paint7_linear" x1="777.275" y1="75.4302" x2="358.632" y2="155.43" gradientUnits="userSpaceOnUse">
<stop stop-color="#396DC1"/>
<stop offset="1" stop-color="#6EA5F7"/>
</linearGradient>
<linearGradient id="paint8_linear" x1="777.275" y1="75.4302" x2="358.632" y2="155.43" gradientUnits="userSpaceOnUse">
<stop stop-color="#396DC1"/>
<stop offset="1" stop-color="#6EA5F7"/>
</linearGradient>
<linearGradient id="paint9_linear" x1="777.275" y1="75.4302" x2="358.632" y2="155.43" gradientUnits="userSpaceOnUse">
<stop stop-color="#396DC1"/>
<stop offset="1" stop-color="#6EA5F7"/>
</linearGradient>
<linearGradient id="paint10_linear" x1="159.45" y1="91.7868" x2="251.996" y2="152.082" gradientUnits="userSpaceOnUse">
<stop stop-color="#366ABE"/>
<stop offset="1" stop-color="#6FA6F8"/>
</linearGradient>
<linearGradient id="paint11_linear" x1="159.45" y1="91.7868" x2="251.996" y2="152.082" gradientUnits="userSpaceOnUse">
<stop stop-color="#366ABE"/>
<stop offset="1" stop-color="#6FA6F8"/>
</linearGradient>
<linearGradient id="paint12_linear" x1="159.45" y1="91.7868" x2="251.996" y2="152.082" gradientUnits="userSpaceOnUse">
<stop stop-color="#366ABE"/>
<stop offset="1" stop-color="#6FA6F8"/>
</linearGradient>
</defs>
</svg>
